<svg xmlns="http://www.w3.org/2000/svg" width="1240" height="550" viewBox="0 0 1240 650" fill="#0abcf9" style="">
    <svg xmlns="http://www.w3.org/2000/svg" x="117" y="13" width="1041" height="623" viewBox="0 0 841 523" fill="none">
        <path d="M110.649 3.70718H161.206L274.958 238.886H224.853L206.045 199.313H68.6689L50.4624 238.886H0.206669L110.649 3.70718ZM187.236 160.042L136.379 53.2106L86.8753 160.042H187.236ZM298.768 119.867C298.768 103.115 301.928 87.5169 308.247 73.0722C314.567 58.5271 323.695 45.9381 335.632 35.3051C347.67 24.5718 362.315 16.1457 379.568 10.0268C396.922 3.9078 416.533 0.848315 438.401 0.848315C457.56 0.848315 475.115 2.80438 491.064 6.7165C507.114 10.5283 522.01 16.3965 535.753 24.3211L513.784 60.433C509.672 57.7246 504.907 55.3171 499.49 53.2106C494.174 51.1041 488.456 49.3486 482.337 47.9443C476.318 46.4396 470.049 45.286 463.529 44.4836C457.109 43.6811 450.739 43.2798 444.419 43.2798C429.172 43.2798 415.58 45.1857 403.643 48.9976C391.706 52.7091 381.625 57.9754 373.399 64.7965C365.274 71.5174 359.055 79.5924 354.742 89.0216C350.528 98.3505 348.422 108.632 348.422 119.867C348.422 131.503 350.629 142.186 355.042 151.917C359.456 161.647 365.826 170.073 374.152 177.195C382.578 184.217 392.81 189.734 404.847 193.746C416.984 197.658 430.677 199.614 445.924 199.614C452.846 199.614 459.717 199.113 466.538 198.11C473.359 197.107 479.93 195.752 486.249 194.047C492.669 192.242 498.838 190.135 504.756 187.728C510.675 185.22 516.192 182.511 521.308 179.602L543.276 215.714C530.436 223.94 515.59 230.41 498.738 235.124C481.886 239.739 463.98 242.046 445.021 242.046C420.846 242.046 399.631 238.936 381.374 232.717C363.117 226.397 347.87 217.771 335.632 206.837C323.394 195.803 314.166 182.862 307.946 168.016C301.828 153.07 298.768 137.02 298.768 119.867ZM583.186 119.867C583.186 103.115 586.345 87.5169 592.665 73.0722C598.985 58.5271 608.113 45.9381 620.05 35.3051C632.087 24.5718 646.733 16.1457 663.986 10.0268C681.34 3.9078 700.951 0.848315 722.818 0.848315C741.978 0.848315 759.532 2.80438 775.482 6.7165C791.531 10.5283 806.428 16.3965 820.17 24.3211L798.202 60.433C794.089 57.7246 789.325 55.3171 783.908 53.2106C778.591 51.1041 772.874 49.3486 766.755 47.9443C760.736 46.4396 754.466 45.286 747.946 44.4836C741.526 43.6811 735.157 43.2798 728.837 43.2798C713.59 43.2798 699.998 45.1857 688.061 48.9976C676.124 52.7091 666.042 57.9754 657.817 64.7965C649.692 71.5174 643.472 79.5924 639.159 89.0216C634.946 98.3505 632.839 108.632 632.839 119.867C632.839 131.503 635.046 142.186 639.46 151.917C643.874 161.647 650.243 170.073 658.569 177.195C666.995 184.217 677.227 189.734 689.264 193.746C701.402 197.658 715.094 199.614 730.342 199.614C737.263 199.614 744.134 199.113 750.956 198.11C757.777 197.107 764.347 195.752 770.667 194.047C777.087 192.242 783.256 190.135 789.174 187.728C795.092 185.22 800.609 182.511 805.725 179.602L827.693 215.714C814.854 223.94 800.008 230.41 783.155 235.124C766.303 239.739 748.398 242.046 729.439 242.046C705.264 242.046 684.048 238.936 665.792 232.717C647.535 226.397 632.288 217.771 620.05 206.837C607.812 195.803 598.583 182.862 592.364 168.016C586.245 153.07 583.186 137.02 583.186 119.867ZM17.5103 283.707H217.781V325.537H65.2081V372.482H200.327V411.754H65.2081V477.207H220.941V518.886H17.5103V283.707ZM286.43 448.919C294.956 453.734 303.583 458.098 312.31 462.01C321.137 465.822 330.266 469.082 339.695 471.79C349.124 474.398 359.005 476.404 369.337 477.809C379.769 479.213 390.853 479.915 402.59 479.915C416.734 479.915 428.771 479.013 438.702 477.207C448.633 475.301 456.708 472.743 462.927 469.533C469.246 466.223 473.811 462.311 476.619 457.797C479.528 453.283 480.983 448.368 480.983 443.051C480.983 434.525 477.422 427.804 470.3 422.889C463.178 417.873 452.194 415.365 437.348 415.365C430.827 415.365 423.956 415.817 416.734 416.719C409.511 417.522 402.189 418.425 394.766 419.428C387.443 420.431 380.17 421.384 372.948 422.287C365.826 423.089 359.105 423.49 352.785 423.49C342.253 423.49 332.121 422.136 322.391 419.428C312.761 416.719 304.185 412.657 296.661 407.24C289.238 401.823 283.32 395.052 278.906 386.927C274.493 378.802 272.286 369.323 272.286 358.489C272.286 352.069 273.139 345.699 274.844 339.38C276.649 333.06 279.458 327.041 283.27 321.324C287.182 315.506 292.198 310.139 298.317 305.224C304.436 300.208 311.808 295.895 320.435 292.284C329.162 288.673 339.193 285.864 350.528 283.858C361.964 281.751 374.954 280.698 389.499 280.698C400.032 280.698 410.615 281.3 421.248 282.503C431.881 283.607 442.213 285.212 452.244 287.318C462.375 289.425 472.105 291.983 481.434 294.992C490.763 297.901 499.44 301.161 507.465 304.772L486.55 343.292C479.93 340.383 472.807 337.725 465.184 335.317C457.56 332.809 449.585 330.653 441.26 328.847C432.934 327.041 424.307 325.637 415.379 324.634C406.552 323.531 397.524 322.979 388.296 322.979C375.155 322.979 364.321 323.932 355.795 325.838C347.369 327.744 340.648 330.201 335.632 333.211C330.617 336.12 327.106 339.43 325.1 343.141C323.194 346.753 322.241 350.364 322.241 353.975C322.241 360.997 325.401 366.765 331.72 371.279C338.04 375.692 347.67 377.899 360.61 377.899C365.826 377.899 371.794 377.548 378.515 376.846C385.336 376.043 392.458 375.191 399.881 374.288C407.405 373.385 415.028 372.583 422.752 371.88C430.577 371.078 438.15 370.677 445.473 370.677C459.316 370.677 471.554 372.232 482.187 375.341C492.92 378.451 501.898 382.915 509.12 388.733C516.342 394.45 521.809 401.422 525.521 409.648C529.232 417.773 531.088 426.901 531.088 437.032C531.088 450.574 527.928 462.662 521.609 473.295C515.389 483.827 506.462 492.755 494.826 500.078C483.29 507.3 469.347 512.817 452.996 516.629C436.645 520.341 418.439 522.196 398.377 522.196C385.136 522.196 372.196 521.344 359.556 519.638C346.917 518.033 334.78 515.726 323.144 512.717C311.608 509.607 300.574 505.946 290.041 501.733C279.609 497.42 269.929 492.705 261.001 487.589L286.43 448.919ZM596.126 448.919C604.652 453.734 613.279 458.098 622.006 462.01C630.833 465.822 639.962 469.082 649.391 471.79C658.82 474.398 668.701 476.404 679.033 477.809C689.465 479.213 700.549 479.915 712.286 479.915C726.43 479.915 738.467 479.013 748.398 477.207C758.328 475.301 766.403 472.743 772.623 469.533C778.942 466.223 783.506 462.311 786.315 457.797C789.224 453.283 790.679 448.368 790.679 443.051C790.679 434.525 787.118 427.804 779.996 422.889C772.874 417.873 761.889 415.365 747.043 415.365C740.523 415.365 733.652 415.817 726.43 416.719C719.207 417.522 711.884 418.425 704.461 419.428C697.139 420.431 689.866 421.384 682.644 422.287C675.522 423.089 668.801 423.49 662.481 423.49C651.949 423.49 641.817 422.136 632.087 419.428C622.457 416.719 613.881 412.657 606.357 407.24C598.934 401.823 593.016 395.052 588.602 386.927C584.189 378.802 581.982 369.323 581.982 358.489C581.982 352.069 582.834 345.699 584.54 339.38C586.345 333.06 589.154 327.041 592.966 321.324C596.878 315.506 601.894 310.139 608.013 305.224C614.131 300.208 621.504 295.895 630.131 292.284C638.858 288.673 648.889 285.864 660.224 283.858C671.66 281.751 684.65 280.698 699.195 280.698C709.728 280.698 720.311 281.3 730.944 282.503C741.576 283.607 751.909 285.212 761.94 287.318C772.071 289.425 781.801 291.983 791.13 294.992C800.459 297.901 809.136 301.161 817.161 304.772L796.246 343.292C789.625 340.383 782.503 337.725 774.88 335.317C767.256 332.809 759.281 330.653 750.956 328.847C742.63 327.041 734.003 325.637 725.075 324.634C716.248 323.531 707.22 322.979 697.991 322.979C684.851 322.979 674.017 323.932 665.491 325.838C657.065 327.744 650.344 330.201 645.328 333.211C640.313 336.12 636.802 339.43 634.796 343.141C632.89 346.753 631.937 350.364 631.937 353.975C631.937 360.997 635.096 366.765 641.416 371.279C647.736 375.692 657.365 377.899 670.306 377.899C675.522 377.899 681.49 377.548 688.211 376.846C695.032 376.043 702.154 375.191 709.577 374.288C717.101 373.385 724.724 372.583 732.448 371.88C740.272 371.078 747.846 370.677 755.169 370.677C769.012 370.677 781.249 372.232 791.882 375.341C802.616 378.451 811.594 382.915 818.816 388.733C826.038 394.45 831.505 401.422 835.217 409.648C838.928 417.773 840.784 426.901 840.784 437.032C840.784 450.574 837.624 462.662 831.305 473.295C825.085 483.827 816.158 492.755 804.522 500.078C792.986 507.3 779.043 512.817 762.692 516.629C746.341 520.341 728.135 522.196 708.073 522.196C694.832 522.196 681.892 521.344 669.252 519.638C656.613 518.033 644.476 515.726 632.839 512.717C621.304 509.607 610.27 505.946 599.737 501.733C589.305 497.42 579.625 492.705 570.697 487.589L596.126 448.919Z" fill="#54C9FF"/>
        <path d="M110.649 3.70718H161.206L274.958 238.886H224.853L206.045 199.313H68.6689L50.4624 238.886H0.206669L110.649 3.70718ZM187.236 160.042L136.379 53.2106L86.8753 160.042H187.236ZM298.768 119.867C298.768 103.115 301.928 87.5169 308.247 73.0722C314.567 58.5271 323.695 45.9381 335.632 35.3051C347.67 24.5718 362.315 16.1457 379.568 10.0268C396.922 3.9078 416.533 0.848315 438.401 0.848315C457.56 0.848315 475.115 2.80438 491.064 6.7165C507.114 10.5283 522.01 16.3965 535.753 24.3211L513.784 60.433C509.672 57.7246 504.907 55.3171 499.49 53.2106C494.174 51.1041 488.456 49.3486 482.337 47.9443C476.318 46.4396 470.049 45.286 463.529 44.4836C457.109 43.6811 450.739 43.2798 444.419 43.2798C429.172 43.2798 415.58 45.1857 403.643 48.9976C391.706 52.7091 381.625 57.9754 373.399 64.7965C365.274 71.5174 359.055 79.5924 354.742 89.0216C350.528 98.3505 348.422 108.632 348.422 119.867C348.422 131.503 350.629 142.186 355.042 151.917C359.456 161.647 365.826 170.073 374.152 177.195C382.578 184.217 392.81 189.734 404.847 193.746C416.984 197.658 430.677 199.614 445.924 199.614C452.846 199.614 459.717 199.113 466.538 198.11C473.359 197.107 479.93 195.752 486.249 194.047C492.669 192.242 498.838 190.135 504.756 187.728C510.675 185.22 516.192 182.511 521.308 179.602L543.276 215.714C530.436 223.94 515.59 230.41 498.738 235.124C481.886 239.739 463.98 242.046 445.021 242.046C420.846 242.046 399.631 238.936 381.374 232.717C363.117 226.397 347.87 217.771 335.632 206.837C323.394 195.803 314.166 182.862 307.946 168.016C301.828 153.07 298.768 137.02 298.768 119.867ZM583.186 119.867C583.186 103.115 586.345 87.5169 592.665 73.0722C598.985 58.5271 608.113 45.9381 620.05 35.3051C632.087 24.5718 646.733 16.1457 663.986 10.0268C681.34 3.9078 700.951 0.848315 722.818 0.848315C741.978 0.848315 759.532 2.80438 775.482 6.7165C791.531 10.5283 806.428 16.3965 820.17 24.3211L798.202 60.433C794.089 57.7246 789.325 55.3171 783.908 53.2106C778.591 51.1041 772.874 49.3486 766.755 47.9443C760.736 46.4396 754.466 45.286 747.946 44.4836C741.526 43.6811 735.157 43.2798 728.837 43.2798C713.59 43.2798 699.998 45.1857 688.061 48.9976C676.124 52.7091 666.042 57.9754 657.817 64.7965C649.692 71.5174 643.472 79.5924 639.159 89.0216C634.946 98.3505 632.839 108.632 632.839 119.867C632.839 131.503 635.046 142.186 639.46 151.917C643.874 161.647 650.243 170.073 658.569 177.195C666.995 184.217 677.227 189.734 689.264 193.746C701.402 197.658 715.094 199.614 730.342 199.614C737.263 199.614 744.134 199.113 750.956 198.11C757.777 197.107 764.347 195.752 770.667 194.047C777.087 192.242 783.256 190.135 789.174 187.728C795.092 185.22 800.609 182.511 805.725 179.602L827.693 215.714C814.854 223.94 800.008 230.41 783.155 235.124C766.303 239.739 748.398 242.046 729.439 242.046C705.264 242.046 684.048 238.936 665.792 232.717C647.535 226.397 632.288 217.771 620.05 206.837C607.812 195.803 598.583 182.862 592.364 168.016C586.245 153.07 583.186 137.02 583.186 119.867ZM17.5103 283.707H217.781V325.537H65.2081V372.482H200.327V411.754H65.2081V477.207H220.941V518.886H17.5103V283.707ZM286.43 448.919C294.956 453.734 303.583 458.098 312.31 462.01C321.137 465.822 330.266 469.082 339.695 471.79C349.124 474.398 359.005 476.404 369.337 477.809C379.769 479.213 390.853 479.915 402.59 479.915C416.734 479.915 428.771 479.013 438.702 477.207C448.633 475.301 456.708 472.743 462.927 469.533C469.246 466.223 473.811 462.311 476.619 457.797C479.528 453.283 480.983 448.368 480.983 443.051C480.983 434.525 477.422 427.804 470.3 422.889C463.178 417.873 452.194 415.365 437.348 415.365C430.827 415.365 423.956 415.817 416.734 416.719C409.511 417.522 402.189 418.425 394.766 419.428C387.443 420.431 380.17 421.384 372.948 422.287C365.826 423.089 359.105 423.49 352.785 423.49C342.253 423.49 332.121 422.136 322.391 419.428C312.761 416.719 304.185 412.657 296.661 407.24C289.238 401.823 283.32 395.052 278.906 386.927C274.493 378.802 272.286 369.323 272.286 358.489C272.286 352.069 273.139 345.699 274.844 339.38C276.649 333.06 279.458 327.041 283.27 321.324C287.182 315.506 292.198 310.139 298.317 305.224C304.436 300.208 311.808 295.895 320.435 292.284C329.162 288.673 339.193 285.864 350.528 283.858C361.964 281.751 374.954 280.698 389.499 280.698C400.032 280.698 410.615 281.3 421.248 282.503C431.881 283.607 442.213 285.212 452.244 287.318C462.375 289.425 472.105 291.983 481.434 294.992C490.763 297.901 499.44 301.161 507.465 304.772L486.55 343.292C479.93 340.383 472.807 337.725 465.184 335.317C457.56 332.809 449.585 330.653 441.26 328.847C432.934 327.041 424.307 325.637 415.379 324.634C406.552 323.531 397.524 322.979 388.296 322.979C375.155 322.979 364.321 323.932 355.795 325.838C347.369 327.744 340.648 330.201 335.632 333.211C330.617 336.12 327.106 339.43 325.1 343.141C323.194 346.753 322.241 350.364 322.241 353.975C322.241 360.997 325.401 366.765 331.72 371.279C338.04 375.692 347.67 377.899 360.61 377.899C365.826 377.899 371.794 377.548 378.515 376.846C385.336 376.043 392.458 375.191 399.881 374.288C407.405 373.385 415.028 372.583 422.752 371.88C430.577 371.078 438.15 370.677 445.473 370.677C459.316 370.677 471.554 372.232 482.187 375.341C492.92 378.451 501.898 382.915 509.12 388.733C516.342 394.45 521.809 401.422 525.521 409.648C529.232 417.773 531.088 426.901 531.088 437.032C531.088 450.574 527.928 462.662 521.609 473.295C515.389 483.827 506.462 492.755 494.826 500.078C483.29 507.3 469.347 512.817 452.996 516.629C436.645 520.341 418.439 522.196 398.377 522.196C385.136 522.196 372.196 521.344 359.556 519.638C346.917 518.033 334.78 515.726 323.144 512.717C311.608 509.607 300.574 505.946 290.041 501.733C279.609 497.42 269.929 492.705 261.001 487.589L286.43 448.919ZM596.126 448.919C604.652 453.734 613.279 458.098 622.006 462.01C630.833 465.822 639.962 469.082 649.391 471.79C658.82 474.398 668.701 476.404 679.033 477.809C689.465 479.213 700.549 479.915 712.286 479.915C726.43 479.915 738.467 479.013 748.398 477.207C758.328 475.301 766.403 472.743 772.623 469.533C778.942 466.223 783.506 462.311 786.315 457.797C789.224 453.283 790.679 448.368 790.679 443.051C790.679 434.525 787.118 427.804 779.996 422.889C772.874 417.873 761.889 415.365 747.043 415.365C740.523 415.365 733.652 415.817 726.43 416.719C719.207 417.522 711.884 418.425 704.461 419.428C697.139 420.431 689.866 421.384 682.644 422.287C675.522 423.089 668.801 423.49 662.481 423.49C651.949 423.49 641.817 422.136 632.087 419.428C622.457 416.719 613.881 412.657 606.357 407.24C598.934 401.823 593.016 395.052 588.602 386.927C584.189 378.802 581.982 369.323 581.982 358.489C581.982 352.069 582.834 345.699 584.54 339.38C586.345 333.06 589.154 327.041 592.966 321.324C596.878 315.506 601.894 310.139 608.013 305.224C614.131 300.208 621.504 295.895 630.131 292.284C638.858 288.673 648.889 285.864 660.224 283.858C671.66 281.751 684.65 280.698 699.195 280.698C709.728 280.698 720.311 281.3 730.944 282.503C741.576 283.607 751.909 285.212 761.94 287.318C772.071 289.425 781.801 291.983 791.13 294.992C800.459 297.901 809.136 301.161 817.161 304.772L796.246 343.292C789.625 340.383 782.503 337.725 774.88 335.317C767.256 332.809 759.281 330.653 750.956 328.847C742.63 327.041 734.003 325.637 725.075 324.634C716.248 323.531 707.22 322.979 697.991 322.979C684.851 322.979 674.017 323.932 665.491 325.838C657.065 327.744 650.344 330.201 645.328 333.211C640.313 336.12 636.802 339.43 634.796 343.141C632.89 346.753 631.937 350.364 631.937 353.975C631.937 360.997 635.096 366.765 641.416 371.279C647.736 375.692 657.365 377.899 670.306 377.899C675.522 377.899 681.49 377.548 688.211 376.846C695.032 376.043 702.154 375.191 709.577 374.288C717.101 373.385 724.724 372.583 732.448 371.88C740.272 371.078 747.846 370.677 755.169 370.677C769.012 370.677 781.249 372.232 791.882 375.341C802.616 378.451 811.594 382.915 818.816 388.733C826.038 394.45 831.505 401.422 835.217 409.648C838.928 417.773 840.784 426.901 840.784 437.032C840.784 450.574 837.624 462.662 831.305 473.295C825.085 483.827 816.158 492.755 804.522 500.078C792.986 507.3 779.043 512.817 762.692 516.629C746.341 520.341 728.135 522.196 708.073 522.196C694.832 522.196 681.892 521.344 669.252 519.638C656.613 518.033 644.476 515.726 632.839 512.717C621.304 509.607 610.27 505.946 599.737 501.733C589.305 497.42 579.625 492.705 570.697 487.589L596.126 448.919Z" fill="url(#paint0_radial_194_2258)" fill-opacity="0.6"/>
        <path d="M110.649 3.70718H161.206L274.958 238.886H224.853L206.045 199.313H68.6689L50.4624 238.886H0.206669L110.649 3.70718ZM187.236 160.042L136.379 53.2106L86.8753 160.042H187.236ZM298.768 119.867C298.768 103.115 301.928 87.5169 308.247 73.0722C314.567 58.5271 323.695 45.9381 335.632 35.3051C347.67 24.5718 362.315 16.1457 379.568 10.0268C396.922 3.9078 416.533 0.848315 438.401 0.848315C457.56 0.848315 475.115 2.80438 491.064 6.7165C507.114 10.5283 522.01 16.3965 535.753 24.3211L513.784 60.433C509.672 57.7246 504.907 55.3171 499.49 53.2106C494.174 51.1041 488.456 49.3486 482.337 47.9443C476.318 46.4396 470.049 45.286 463.529 44.4836C457.109 43.6811 450.739 43.2798 444.419 43.2798C429.172 43.2798 415.58 45.1857 403.643 48.9976C391.706 52.7091 381.625 57.9754 373.399 64.7965C365.274 71.5174 359.055 79.5924 354.742 89.0216C350.528 98.3505 348.422 108.632 348.422 119.867C348.422 131.503 350.629 142.186 355.042 151.917C359.456 161.647 365.826 170.073 374.152 177.195C382.578 184.217 392.81 189.734 404.847 193.746C416.984 197.658 430.677 199.614 445.924 199.614C452.846 199.614 459.717 199.113 466.538 198.11C473.359 197.107 479.93 195.752 486.249 194.047C492.669 192.242 498.838 190.135 504.756 187.728C510.675 185.22 516.192 182.511 521.308 179.602L543.276 215.714C530.436 223.94 515.59 230.41 498.738 235.124C481.886 239.739 463.98 242.046 445.021 242.046C420.846 242.046 399.631 238.936 381.374 232.717C363.117 226.397 347.87 217.771 335.632 206.837C323.394 195.803 314.166 182.862 307.946 168.016C301.828 153.07 298.768 137.02 298.768 119.867ZM583.186 119.867C583.186 103.115 586.345 87.5169 592.665 73.0722C598.985 58.5271 608.113 45.9381 620.05 35.3051C632.087 24.5718 646.733 16.1457 663.986 10.0268C681.34 3.9078 700.951 0.848315 722.818 0.848315C741.978 0.848315 759.532 2.80438 775.482 6.7165C791.531 10.5283 806.428 16.3965 820.17 24.3211L798.202 60.433C794.089 57.7246 789.325 55.3171 783.908 53.2106C778.591 51.1041 772.874 49.3486 766.755 47.9443C760.736 46.4396 754.466 45.286 747.946 44.4836C741.526 43.6811 735.157 43.2798 728.837 43.2798C713.59 43.2798 699.998 45.1857 688.061 48.9976C676.124 52.7091 666.042 57.9754 657.817 64.7965C649.692 71.5174 643.472 79.5924 639.159 89.0216C634.946 98.3505 632.839 108.632 632.839 119.867C632.839 131.503 635.046 142.186 639.46 151.917C643.874 161.647 650.243 170.073 658.569 177.195C666.995 184.217 677.227 189.734 689.264 193.746C701.402 197.658 715.094 199.614 730.342 199.614C737.263 199.614 744.134 199.113 750.956 198.11C757.777 197.107 764.347 195.752 770.667 194.047C777.087 192.242 783.256 190.135 789.174 187.728C795.092 185.22 800.609 182.511 805.725 179.602L827.693 215.714C814.854 223.94 800.008 230.41 783.155 235.124C766.303 239.739 748.398 242.046 729.439 242.046C705.264 242.046 684.048 238.936 665.792 232.717C647.535 226.397 632.288 217.771 620.05 206.837C607.812 195.803 598.583 182.862 592.364 168.016C586.245 153.07 583.186 137.02 583.186 119.867ZM17.5103 283.707H217.781V325.537H65.2081V372.482H200.327V411.754H65.2081V477.207H220.941V518.886H17.5103V283.707ZM286.43 448.919C294.956 453.734 303.583 458.098 312.31 462.01C321.137 465.822 330.266 469.082 339.695 471.79C349.124 474.398 359.005 476.404 369.337 477.809C379.769 479.213 390.853 479.915 402.59 479.915C416.734 479.915 428.771 479.013 438.702 477.207C448.633 475.301 456.708 472.743 462.927 469.533C469.246 466.223 473.811 462.311 476.619 457.797C479.528 453.283 480.983 448.368 480.983 443.051C480.983 434.525 477.422 427.804 470.3 422.889C463.178 417.873 452.194 415.365 437.348 415.365C430.827 415.365 423.956 415.817 416.734 416.719C409.511 417.522 402.189 418.425 394.766 419.428C387.443 420.431 380.17 421.384 372.948 422.287C365.826 423.089 359.105 423.49 352.785 423.49C342.253 423.49 332.121 422.136 322.391 419.428C312.761 416.719 304.185 412.657 296.661 407.24C289.238 401.823 283.32 395.052 278.906 386.927C274.493 378.802 272.286 369.323 272.286 358.489C272.286 352.069 273.139 345.699 274.844 339.38C276.649 333.06 279.458 327.041 283.27 321.324C287.182 315.506 292.198 310.139 298.317 305.224C304.436 300.208 311.808 295.895 320.435 292.284C329.162 288.673 339.193 285.864 350.528 283.858C361.964 281.751 374.954 280.698 389.499 280.698C400.032 280.698 410.615 281.3 421.248 282.503C431.881 283.607 442.213 285.212 452.244 287.318C462.375 289.425 472.105 291.983 481.434 294.992C490.763 297.901 499.44 301.161 507.465 304.772L486.55 343.292C479.93 340.383 472.807 337.725 465.184 335.317C457.56 332.809 449.585 330.653 441.26 328.847C432.934 327.041 424.307 325.637 415.379 324.634C406.552 323.531 397.524 322.979 388.296 322.979C375.155 322.979 364.321 323.932 355.795 325.838C347.369 327.744 340.648 330.201 335.632 333.211C330.617 336.12 327.106 339.43 325.1 343.141C323.194 346.753 322.241 350.364 322.241 353.975C322.241 360.997 325.401 366.765 331.72 371.279C338.04 375.692 347.67 377.899 360.61 377.899C365.826 377.899 371.794 377.548 378.515 376.846C385.336 376.043 392.458 375.191 399.881 374.288C407.405 373.385 415.028 372.583 422.752 371.88C430.577 371.078 438.15 370.677 445.473 370.677C459.316 370.677 471.554 372.232 482.187 375.341C492.92 378.451 501.898 382.915 509.12 388.733C516.342 394.45 521.809 401.422 525.521 409.648C529.232 417.773 531.088 426.901 531.088 437.032C531.088 450.574 527.928 462.662 521.609 473.295C515.389 483.827 506.462 492.755 494.826 500.078C483.29 507.3 469.347 512.817 452.996 516.629C436.645 520.341 418.439 522.196 398.377 522.196C385.136 522.196 372.196 521.344 359.556 519.638C346.917 518.033 334.78 515.726 323.144 512.717C311.608 509.607 300.574 505.946 290.041 501.733C279.609 497.42 269.929 492.705 261.001 487.589L286.43 448.919ZM596.126 448.919C604.652 453.734 613.279 458.098 622.006 462.01C630.833 465.822 639.962 469.082 649.391 471.79C658.82 474.398 668.701 476.404 679.033 477.809C689.465 479.213 700.549 479.915 712.286 479.915C726.43 479.915 738.467 479.013 748.398 477.207C758.328 475.301 766.403 472.743 772.623 469.533C778.942 466.223 783.506 462.311 786.315 457.797C789.224 453.283 790.679 448.368 790.679 443.051C790.679 434.525 787.118 427.804 779.996 422.889C772.874 417.873 761.889 415.365 747.043 415.365C740.523 415.365 733.652 415.817 726.43 416.719C719.207 417.522 711.884 418.425 704.461 419.428C697.139 420.431 689.866 421.384 682.644 422.287C675.522 423.089 668.801 423.49 662.481 423.49C651.949 423.49 641.817 422.136 632.087 419.428C622.457 416.719 613.881 412.657 606.357 407.24C598.934 401.823 593.016 395.052 588.602 386.927C584.189 378.802 581.982 369.323 581.982 358.489C581.982 352.069 582.834 345.699 584.54 339.38C586.345 333.06 589.154 327.041 592.966 321.324C596.878 315.506 601.894 310.139 608.013 305.224C614.131 300.208 621.504 295.895 630.131 292.284C638.858 288.673 648.889 285.864 660.224 283.858C671.66 281.751 684.65 280.698 699.195 280.698C709.728 280.698 720.311 281.3 730.944 282.503C741.576 283.607 751.909 285.212 761.94 287.318C772.071 289.425 781.801 291.983 791.13 294.992C800.459 297.901 809.136 301.161 817.161 304.772L796.246 343.292C789.625 340.383 782.503 337.725 774.88 335.317C767.256 332.809 759.281 330.653 750.956 328.847C742.63 327.041 734.003 325.637 725.075 324.634C716.248 323.531 707.22 322.979 697.991 322.979C684.851 322.979 674.017 323.932 665.491 325.838C657.065 327.744 650.344 330.201 645.328 333.211C640.313 336.12 636.802 339.43 634.796 343.141C632.89 346.753 631.937 350.364 631.937 353.975C631.937 360.997 635.096 366.765 641.416 371.279C647.736 375.692 657.365 377.899 670.306 377.899C675.522 377.899 681.49 377.548 688.211 376.846C695.032 376.043 702.154 375.191 709.577 374.288C717.101 373.385 724.724 372.583 732.448 371.88C740.272 371.078 747.846 370.677 755.169 370.677C769.012 370.677 781.249 372.232 791.882 375.341C802.616 378.451 811.594 382.915 818.816 388.733C826.038 394.45 831.505 401.422 835.217 409.648C838.928 417.773 840.784 426.901 840.784 437.032C840.784 450.574 837.624 462.662 831.305 473.295C825.085 483.827 816.158 492.755 804.522 500.078C792.986 507.3 779.043 512.817 762.692 516.629C746.341 520.341 728.135 522.196 708.073 522.196C694.832 522.196 681.892 521.344 669.252 519.638C656.613 518.033 644.476 515.726 632.839 512.717C621.304 509.607 610.27 505.946 599.737 501.733C589.305 497.42 579.625 492.705 570.697 487.589L596.126 448.919Z" fill="url(#paint1_radial_194_2258)" fill-opacity="0.5"/>
        <defs>
        <radialGradient id="paint0_radial_194_2258" cx="0" cy="0" r="1" gradientUnits="userSpaceOnUse" gradientTransform="translate(56.5357 419.257) rotate(-28.1094) scale(287.109 693.863)">
        <stop offset="0.0520833" stop-color="#000E1C"/>
        <stop offset="0.5" stop-color="#002137" stop-opacity="0"/>
        </radialGradient>
        <radialGradient id="paint1_radial_194_2258" cx="0" cy="0" r="1" gradientUnits="userSpaceOnUse" gradientTransform="translate(819.415 203.763) rotate(-169.347) scale(152.052 370.033)">
        <stop offset="0.447917"/>
        <stop offset="1" stop-opacity="0"/>
        </radialGradient>
        </defs>
    </svg>
    <g style="mix-blend-mode:overlay">
        <rect x="50.810547" y="210.345581" width="829.399" height="89.5406" fill="#3d98c5"/>
    </g>
    <g style="mix-blend-mode:overlay">
        <rect x="590.989746" y="392.700928" width="809.399" height="86.5121" fill="#3d98c5"/>
    </g>
</svg>