<svg width="255" height="265" viewBox="0 0 255 265" fill="none" xmlns="http://www.w3.org/2000/svg">
<circle cx="18.275" cy="18.3675" r="17.7755" fill="#005595"/>
<circle cx="72.921" cy="18.3675" r="17.7755" fill="#005595"/>
<circle cx="127.567" cy="18.3675" r="17.7755" fill="#005595"/>
<circle cx="182.213" cy="18.3675" r="17.7755" fill="#005595"/>
<circle cx="236.859" cy="18.3675" r="17.7755" fill="#005595"/>
<circle cx="18.275" cy="64.0758" r="17.7755" fill="#005595"/>
<circle cx="72.921" cy="64.0758" r="17.7755" fill="#005595"/>
<circle cx="127.567" cy="64.0758" r="17.7755" fill="#005595"/>
<circle cx="182.213" cy="64.0758" r="17.7755" fill="#005595"/>
<circle cx="236.859" cy="64.0758" r="17.7755" fill="#005595"/>
<circle cx="18.275" cy="109.784" r="17.7755" fill="#005595"/>
<circle cx="72.921" cy="109.784" r="17.7755" fill="#005595"/>
<circle cx="127.567" cy="109.784" r="17.7755" fill="#005595"/>
<circle cx="182.213" cy="109.784" r="17.7755" fill="#005595"/>
<circle cx="236.859" cy="109.784" r="17.7755" fill="#005595"/>
<circle cx="18.275" cy="155.492" r="17.7755" fill="#005595"/>
<circle cx="72.921" cy="155.492" r="17.7755" fill="#005595"/>
<circle cx="127.567" cy="155.492" r="17.7755" fill="#005595"/>
<circle cx="182.213" cy="155.492" r="17.7755" fill="#005595"/>
<circle cx="236.859" cy="155.492" r="17.7755" fill="#005595"/>
<circle cx="18.275" cy="201.2" r="17.7755" fill="#005595"/>
<circle cx="72.921" cy="201.2" r="17.7755" fill="#005595"/>
<circle cx="127.567" cy="201.2" r="17.7755" fill="#005595"/>
<circle cx="182.213" cy="201.2" r="17.7755" fill="#005595"/>
<circle cx="236.859" cy="201.2" r="17.7755" fill="#005595"/>
<circle cx="18.275" cy="246.908" r="17.7755" fill="#005595"/>
<circle cx="72.921" cy="246.908" r="17.7755" fill="#005595"/>
<circle cx="127.567" cy="246.908" r="17.7755" fill="#005595"/>
<circle cx="182.213" cy="246.908" r="17.7755" fill="#005595"/>
<circle cx="236.859" cy="246.908" r="17.7755" fill="#005595"/>
</svg>